<?xml version="1.0" encoding="utf-8"?>
<!-- Generator: Adobe Illustrator 23.0.5, SVG Export Plug-In . SVG Version: 6.00 Build 0)  -->
<svg version="1.1" id="Layer_1" xmlns="http://www.w3.org/2000/svg" xmlns:xlink="http://www.w3.org/1999/xlink" x="0px" y="0px"
	 viewBox="0 0 536.1 528.29" style="enable-background:new 0 0 536.1 528.29;" xml:space="preserve">
<g>
	<path d="M517.83,465.37c-0.77,2.95-1.46,5.93-2.33,8.86c-6.69,22.43-27.29,38.22-50.73,38.93c-1.3,0.04-2.6,0.05-3.9,0.05
		c-128.71,0-257.42,0.01-386.13-0.01c-27.48,0-49.21-16.69-55.32-42.45c-0.78-3.3-1.2-6.73-1.36-10.12
		c-0.33-6.89,2.59-9.81,9.51-9.9c1.62-0.02,3.24,0,5.94,0c-4.29-5.77-8.05-10.93-11.92-16c-2.53-3.31-5.07-6.54-2.68-11.01
		c2.22-4.15,6.06-4.42,10.11-4.24c1.59,0.07,3.19,0.01,5.1,0.01c-1.4-11.09,0.23-21.38,3.42-31.55c0.47-1.49-0.33-3.72-1.2-5.23
		c-11.37-19.85-17.22-41.21-18.41-64.04c-1.11-21.23,7.79-37.48,24.08-50.11C60,254.6,80.9,248.82,103.33,247.7
		c1.78-0.09,3.56-0.01,5.41-0.01c-1.53-6.01-1.53-6.01-20.21-8.29c0-4.78,0-9.6,0-14.84c8.87-0.89,17.62-0.87,25.74,4.73
		c1.79-2.61,3.36-5.23,5.26-7.58c10.04-12.43,23.94-17.43,39.05-19.82c19.11-3.02,37.58-0.07,55.56,6.58
		c6.96,2.57,8.57,6.58,5.15,13.34c-7.32,14.45-19.42,23.72-33.73,30.47c-2.78,1.31-5.68,2.39-9.34,3.91
		c13.04,5.94,24.38,13.32,32.97,24.25c8.67,11.04,12.97,23.44,11.52,38.23c-5.19-0.52-10.09-1-14.9-1.48
		c-3.27-27.15-17.46-42.48-45.89-50.1c-20.64-5.53-41.64-4.28-62.56-3.11c-15.66,0.87-30.27,5.77-43.3,14.79
		c-14.31,9.91-21.87,23.05-20.49,40.99c1.33,17.37,5.21,33.92,13.65,50.14c7.27-9.13,15.51-16.3,25.53-21.23
		c9.93-4.89,20.47-7.26,31.65-7.34c0.79-2.24,1.42-4.4,2.3-6.45c6.41-15,17.85-23.26,34.02-24.57c6.63-0.54,13.34-0.32,20-0.05
		c15.69,0.64,29.64,11.34,34.78,26.38c0.52,1.51,0.95,3.04,1.34,4.31c0.5,0.22,0.64,0.31,0.8,0.34c7.6,1.78,12.51-0.78,17.76-7.1
		c18.53-22.29,49.16-29.67,76.7-19.78c26.75,9.6,45.4,35.5,46.01,64.2c0.23,10.85,0.04,21.72,0.04,32.82c-5.21,0-10.03,0-15.58,0
		c0-5.41,0.21-10.88-0.05-16.33c-0.45-9.55,0.17-19.43-2.1-28.56c-5.12-20.6-18.81-33.88-39.47-39.04
		c-20.51-5.12-38.19,0.74-53.02,15.6c-1.02,1.02-1.84,2.24-2.83,3.47c29.79,15.15,44.3,39.04,42.59,72.91c1.64,0,3.4,0,5.16,0
		c23.43,0,46.86-0.01,70.29,0.01c9.83,0.01,12.96,5.03,8.63,13.81c-2.72,5.52-5.49,11.01-8.52,17.06c1.67,0.15,2.85,0.35,4.03,0.35
		c27.82,0.02,55.65,0.05,83.47,0c14.62-0.03,24.55-9.91,24.56-24.52c0.04-73.71,0.02-147.42,0.02-221.13c0-1.26,0-2.52,0-4.02
		c-57.34,0-114.23,0-171.65,0c0,30.94,0,61.92,0,93.18c-5.47,0-10.4,0-15.8,0c0-1.76,0-3.34,0-4.92c0-31.08,0-62.16,0-93.24
		c0-8.58,2.35-10.89,11.07-10.89c60.37,0,120.74,0,181.1,0c8.57,0,10.89,2.37,10.9,11.07c0.01,9.1,0,18.19,0,27.68
		c4.55,0.24,8.92,0.09,13.17,0.75c16.86,2.61,28.84,13.91,32.8,30.56c0.18,0.76,0.59,1.46,0.89,2.19c0,40.35,0,80.71,0,121.06
		c-0.3,0.73-0.71,1.43-0.89,2.19c-3.97,16.64-15.91,27.91-32.8,30.54c-4.25,0.66-8.62,0.53-13.2,0.77
		c0.07,13.45,1.37,26.81-7.49,38.18c1,0.34,1.29,0.53,1.59,0.53c13.83,0.03,27.65,0.2,41.48-0.05c4.77-0.09,8.56,1,11.31,4.97
		C517.83,458.86,517.83,462.11,517.83,465.37z M501,466.62c-155.62,0-310.9,0-466.38,0c0.15,0.92,0.18,1.57,0.35,2.17
		c4.87,17.6,20.11,28.78,39.4,28.79c129.01,0.02,258.01,0.01,387.02,0.01c1.3,0,2.6,0,3.9-0.06
		C482.76,496.65,498.19,483.38,501,466.62z M251.27,419.31c0.35-3.01,0.95-5.72,0.93-8.43c-0.11-22.63-15.26-43.25-36.68-50.97
		c-7.35-2.65-13.3-1.73-19.47,2.91c-13.62,10.23-20.7,23.81-22.04,40.79c-5.12,0-10.08,0-15.38,0c0.49-18.07,7.45-33.14,19.65-46.36
		c-21.34-0.81-39.46,18.7-43.59,46.34c-4.92,0-9.86,0-15.12,0c0.21-18.31,7.3-33.38,20.8-46.92c-11.53,1.11-20.17,5.33-27.93,11.45
		c-11.37,8.97-16.06,21.23-16.51,35.44c-5.28,0-10.23,0-15.44,0c0.3-18.23,7.25-33.28,20.16-46.18
		c-31.76,1.13-59.95,36.67-49.65,61.93C117.42,419.31,183.93,419.31,251.27,419.31z M471.14,395.63
		c20.63,3.2,31.66-10.58,31.3-27.18c-0.74-34.27-0.21-68.58-0.23-102.87c-0.01-17.98-13.24-28.72-31.07-25.1
		C471.14,292.08,471.14,343.72,471.14,395.63z M333.11,435.49c-97.32,0-194.05,0-291.42,0c3.03,4.05,5.85,7.41,8.21,11.07
		c2.06,3.2,4.55,4.26,8.39,4.25c87.32-0.12,174.64-0.09,261.96-0.09c1.14,0,2.33,0.2,3.4-0.07c0.97-0.25,2.22-0.8,2.65-1.59
		C328.65,444.68,330.79,440.18,333.11,435.49z M180.61,341.24c-4.19-9.32-10.66-14.46-19.93-15.26c-6.61-0.57-13.33-0.46-19.96-0.02
		c-9.33,0.61-17.91,7.79-18.94,15.29C141.1,341.24,160.4,341.24,180.61,341.24z M196.4,226.11c-18.8,2.43-35.8,9.59-51.43,20.21
		C164.01,244.52,181.94,239.88,196.4,226.11z M165.26,216.94c-19.89,2-33.28,9.39-35.96,19.4
		C141.03,230.01,153.24,223.42,165.26,216.94z"/>
	<path d="M351.76,145.85c-3.29,0-8.26,0-13.5,0c0-9.21,2.9-17.07,8.36-24.06c9.71-12.44,9.7-22.09-0.04-34.73
		c-11.46-14.88-11.08-34.16,0.35-49.19c3.5-4.61,5.58-10.3,8.81-16.45c3.21,0,8.17,0,13.56,0c0.15,9.04-2.77,16.87-8.16,23.85
		c-10,12.96-10.03,21.88,0,35.06c11.1,14.6,10.85,33.76-0.03,48.47C357.49,133.72,355.14,139.58,351.76,145.85z"/>
	<path d="M398.73,145.92c-3.34,0-8.17,0-13.52,0c-0.23-9.78,3.16-18.04,9.24-25.34c5.72-6.86,7.81-14.61,5.04-23.18
		c-1.02-3.16-2.89-6.19-4.95-8.84c-12.75-16.36-12.62-35.13-0.09-51.53c3.32-4.34,5.1-9.86,7.99-15.65c3.43,0,8.4,0,13.75,0
		c0.1,9.31-2.94,17.27-8.53,24.34c-9.43,11.94-9.5,21.95-0.19,33.91c11.78,15.13,11.59,34.38,0.16,49.63
		C404.07,134.01,401.92,139.83,398.73,145.92z"/>
	<path d="M439.47,231.81c-5.07,0-9.87,0-15.02,0c0-4.96,0-9.88,0-15.11c4.92,0,9.84,0,15.02,0
		C439.47,221.64,439.47,226.44,439.47,231.81z"/>
	<path d="M424.32,262.92c0-5.13,0-9.94,0-15c5.01,0,9.81,0,15.02,0c0,4.79,0,9.72,0,15C434.57,262.92,429.65,262.92,424.32,262.92z"
		/>
	<path d="M244.71,333.77c5.1,0,9.91,0,15.04,0c0,5,0,9.91,0,15.13c-4.96,0-9.88,0-15.04,0
		C244.71,343.93,244.71,339.12,244.71,333.77z"/>
	<path d="M291.1,333.84c0,5.02,0,9.82,0,14.99c-4.91,0-9.83,0-15.08,0c0-4.87,0-9.79,0-14.99
		C280.9,333.84,285.71,333.84,291.1,333.84z"/>
</g>
</svg>
