<?xml version="1.0" encoding="iso-8859-1"?>
<!-- Generator: Adobe Illustrator 21.0.0, SVG Export Plug-In . SVG Version: 6.00 Build 0)  -->
<svg xmlns="http://www.w3.org/2000/svg" xmlns:xlink="http://www.w3.org/1999/xlink" version="1.1" id="Capa_1" x="0px" y="0px" viewBox="0 0 512 512" style="enable-background:new 0 0 512 512;" xml:space="preserve" width="512" height="512">
<path id="_x3C_Group_x3E__10_" d="M437,181H271v-32.507c34.19-6.969,60-37.274,60-73.493c0-41.355-33.645-75-75-75s-75,33.645-75,75  c0,8.284,6.716,15,15,15s15-6.716,15-15c0-24.813,20.187-45,45-45s45,20.187,45,45s-20.187,45-45,45c-8.284,0-15,6.716-15,15v46H75  c-41.355,0-75,33.645-75,75s33.645,75,75,75h16v75c0,8.284,6.716,15,15,15h45v76c0,8.284,6.716,15,15,15h240c8.284,0,15-6.716,15-15  V331h16c41.355,0,75-33.645,75-75S478.355,181,437,181z M121,331h30v60h-30V331z M136,271c8.271,0,15,6.729,15,15v15h-30v-15  C121,277.729,127.729,271,136,271z M391,421h-60v-45c0-8.284-6.716-15-15-15s-15,6.716-15,15v45h-30v-45c0-8.284-6.716-15-15-15  s-15,6.716-15,15v45h-60c0-5.842,0-129.464,0-135c0-5.258-0.915-10.305-2.58-15H376c8.271,0,15,6.729,15,15V421z M181,482v-31h210  v31H181z M437,301h-16v-15c0-24.813-20.187-45-45-45H136c-24.813,0-45,20.187-45,45v15H75c-24.813,0-45-20.187-45-45  s20.187-45,45-45h362c24.813,0,45,20.187,45,45S461.813,301,437,301z"/>















</svg>
